<?xml version="1.0" encoding="UTF-8"?>
<svg width="339px" height="144px" viewBox="0 0 339 144" version="1.1" xmlns="http://www.w3.org/2000/svg" xmlns:xlink="http://www.w3.org/1999/xlink">
    <!-- Generator: Sketch 53.2 (72643) - https://sketchapp.com -->
    <title>yepp_logo</title>
    <desc>Created with Sketch.</desc>
    <g id="Page-1" stroke="none" stroke-width="1" fill="none" fill-rule="evenodd">
        <path d="M206.325724,88.9196063 C205.28245,92.0516794 203.783621,94.2867052 201.832051,95.6263709 C199.880481,96.9654741 197.292823,97.6347446 194.070202,97.6347446 C193.162468,97.6347446 192.107383,97.5666927 190.903821,97.430589 C189.701384,97.2944852 188.509633,97.0447743 187.329692,96.681456 C186.785277,96.5453523 186.433207,96.3867521 186.274045,96.205093 C186.114882,96.0234338 186.104196,95.6826121 186.2403,95.1837525 L187.397744,89.804843 C187.533848,89.2598656 187.692448,88.9651617 187.874107,88.9196063 C188.056329,88.8740509 188.396026,88.8971098 188.895448,88.9876582 C189.622084,89.1237619 190.234551,89.2143103 190.733973,89.2598656 C191.233395,89.305421 191.732817,89.3279175 192.231676,89.3279175 C193.820491,89.3279175 195.068483,89.0669583 195.976779,88.5450398 C196.884512,88.0231214 197.588089,86.9680362 198.087511,85.379222 L199.313007,81.7021715 L197.338941,81.7021715 C196.294541,81.7021715 195.545409,81.5210748 195.091542,81.1577566 C194.637675,80.7950008 194.206305,80.0003125 193.797994,78.774254 L183.448486,48.54404 C183.266827,48.044618 183.278638,47.7043587 183.482793,47.5226996 C183.686949,47.3410405 183.970967,47.2504921 184.33316,47.2504921 L192.300291,47.2504921 C192.980809,47.2504921 193.446486,47.3297922 193.695635,47.4883924 C193.945346,47.6475551 194.138253,47.9765662 194.274357,48.4759881 L198.155563,62.2297766 L201.355126,74.0764256 L201.763999,74.0764256 L205.236332,62.0250586 L209.321693,48.6120919 C209.457797,48.1126699 209.639456,47.7611623 209.866671,47.5570067 C210.093323,47.3522887 210.54719,47.2504921 211.228271,47.2504921 L219.33038,47.2504921 C220.102009,47.2504921 220.351158,47.6132479 220.079513,48.3398844 L206.325724,88.9876582 L206.325724,88.9196063 Z M240.473026,46.3652554 C245.783884,46.3652554 249.766886,47.6931105 252.422596,50.3482581 C255.077744,53.0039681 256.405037,56.8053117 256.405037,61.7528511 C256.405037,64.1132948 255.95117,65.7246055 255.043437,66.5873457 C254.135704,67.4495235 252.887711,67.8808936 251.298897,67.8808936 L233.868621,67.8808936 C233.914176,69.3330417 234.152639,70.5366037 234.583446,71.4893298 C235.014816,72.4426183 235.593539,73.2142478 236.319613,73.8042181 C237.046249,74.3941884 237.897179,74.803062 238.872964,75.0297141 C239.849311,75.2569286 240.904396,75.3705359 242.038781,75.3705359 C243.355388,75.3705359 244.694491,75.2113732 246.056091,74.8941728 C247.418253,74.5764099 248.688742,74.1675363 249.869245,73.6681144 C250.41366,73.4870177 250.788789,73.430214 250.992382,73.4982659 C251.196538,73.5663178 251.389445,73.7817216 251.571105,74.1450398 L253.749889,79.0470239 C253.932111,79.4553351 253.965855,79.773098 253.852248,80.0003125 C253.738641,80.2269645 253.500178,80.454179 253.137422,80.6813935 C251.457497,81.7702234 249.50649,82.5536635 247.281587,83.0300266 C245.057247,83.506952 242.99207,83.7448524 241.086055,83.7448524 C235.139672,83.7448524 230.736547,82.2696454 227.877244,79.3192314 C225.017379,76.3688174 223.587727,71.6940478 223.587727,65.2937978 C223.587727,62.2978285 223.98479,59.6308702 224.779478,57.292923 C225.573604,54.9555382 226.707989,52.969661 228.183196,51.3358538 C229.658403,49.7014841 231.428877,48.4647399 233.494054,47.6250586 C235.559794,46.7853773 237.885368,46.3652554 240.473026,46.3652554 Z M240.677182,54.5359788 C238.816722,54.5359788 237.29596,55.1940009 236.115457,56.5106077 C234.934954,57.8266521 234.254435,59.5060147 234.072776,61.5486955 L246.805224,61.5486955 C246.805224,60.5498516 246.702865,59.6196219 246.49871,58.7568817 C246.295116,57.894704 245.965543,57.1568192 245.511676,56.5443524 C245.057247,55.9318856 244.444781,55.4437119 243.673151,55.0803937 C242.900959,54.7176379 241.902678,54.5359788 240.677182,54.5359788 Z M273.394438,95.7284487 C273.394438,96.2278706 273.315138,96.5456335 273.155976,96.6817372 C272.997375,96.817841 272.600312,96.8858928 271.964787,96.8858928 L264.883456,96.8858928 C264.384034,96.8858928 264.021278,96.817841 263.794626,96.6817372 C263.567411,96.5456335 263.453804,96.2278706 263.453804,95.7284487 L263.453804,51.3355726 C263.453804,50.8361506 263.533667,50.4390876 263.692267,50.1443837 C263.850867,49.8491173 264.225434,49.5426027 264.815966,49.2248399 C266.994188,48.2265584 269.434495,47.5229808 272.135198,47.1146696 C274.835901,46.705796 277.411748,46.5016404 279.86274,46.5016404 C283.085362,46.5016404 285.797875,46.9892517 287.999719,47.9650367 C290.201,48.9413842 291.970911,50.2574285 293.310014,51.9142946 C294.649117,53.5711608 295.614217,55.5345415 296.204187,57.8038744 C296.793595,60.0737697 297.088861,62.5017029 297.088861,65.0887986 C297.088861,67.6314638 296.771098,70.0256522 296.136135,72.2724887 C295.500609,74.5193251 294.524262,76.4827058 293.208217,78.1620684 C291.891611,79.841431 290.223496,81.169286 288.203312,82.1450711 C286.18369,83.1208561 283.811998,83.6090298 281.088799,83.6090298 C279.726636,83.6090298 278.467396,83.5522262 277.309389,83.438619 C276.151945,83.3250117 274.847149,83.1096079 273.394438,82.791845 L273.394438,95.7284487 Z M286.739916,64.884643 C286.739916,63.0241837 286.558257,61.457866 286.195501,60.1868146 C285.83162,58.9157632 285.298453,57.8944227 284.594876,57.1227933 C283.891298,56.3511639 283.02912,55.8067489 282.007218,55.4889861 C280.98644,55.1712232 279.840244,55.0120606 278.569192,55.0120606 C277.933667,55.0120606 277.105796,55.0806749 276.083893,55.2167786 C275.062553,55.3528824 274.166068,55.5345415 273.394438,55.7611936 L273.394438,74.3489142 C274.574941,74.6666771 275.630589,74.8713951 276.560819,74.9619434 C277.491048,75.0524918 278.319481,75.0980472 279.046118,75.0980472 C281.315451,75.0980472 283.165224,74.3264177 284.594876,72.7831589 C286.024527,71.2399 286.739916,68.6072489 286.739916,64.884643 Z M314.350583,95.7284487 C314.350583,96.2278706 314.27072,96.5456335 314.11212,96.6817372 C313.95352,96.817841 313.556457,96.8858928 312.920369,96.8858928 L305.8396,96.8858928 C305.340178,96.8858928 304.977422,96.817841 304.750208,96.6817372 C304.522993,96.5456335 304.409948,96.2278706 304.409948,95.7284487 L304.409948,51.3355726 C304.409948,50.8361506 304.489249,50.4390876 304.647849,50.1443837 C304.807011,49.8491173 305.181015,49.5426027 305.771548,49.2248399 C307.950333,48.2265584 310.390077,47.5229808 313.09078,47.1146696 C315.792045,46.705796 318.367893,46.5016404 320.818885,46.5016404 C324.041506,46.5016404 326.75402,46.9892517 328.955301,47.9650367 C331.156582,48.9413842 332.926493,50.2574285 334.266158,51.9142946 C335.605262,53.5711608 336.569798,55.5345415 337.159769,57.8038744 C337.749739,60.0737697 338.045005,62.5017029 338.045005,65.0887986 C338.045005,67.6314638 337.72668,70.0256522 337.091717,72.2724887 C336.456754,74.5193251 335.480406,76.4827058 334.163799,78.1620684 C332.847755,79.841431 331.179641,81.169286 329.159456,82.1450711 C327.139272,83.1208561 324.76758,83.6090298 322.044381,83.6090298 C320.682781,83.6090298 319.42354,83.5522262 318.265534,83.438619 C317.108089,83.3250117 315.803293,83.1096079 314.350583,82.791845 L314.350583,95.7284487 Z M327.69606,64.884643 C327.69606,63.0241837 327.513838,61.457866 327.151083,60.1868146 C326.787764,58.9157632 326.254598,57.8944227 325.55102,57.1227933 C324.847443,56.3511639 323.985265,55.8067489 322.963362,55.4889861 C321.942022,55.1712232 320.795826,55.0120606 319.525337,55.0120606 C318.889249,55.0120606 318.061378,55.0806749 317.040037,55.2167786 C316.018697,55.3528824 315.122212,55.5345415 314.350583,55.7611936 L314.350583,74.3489142 C315.531086,74.6666771 316.586171,74.8713951 317.516401,74.9619434 C318.447193,75.0524918 319.275626,75.0980472 320.0017,75.0980472 C322.271595,75.0980472 324.121369,74.3264177 325.55102,72.7831589 C326.980672,71.2399 327.69606,68.6072489 327.69606,64.884643 Z M83.1824402,117.21681 C82.3601937,116.478363 81.363037,115.525074 80.4631776,114.902484 L79.6634276,116.059366 L83.1824402,117.21681 Z M102.378691,102.833682 C105.249805,102.141915 110.640525,99.4637088 113.417154,98.0402437 C116.779816,96.3164506 119.958569,94.1382284 123.013029,91.9206374 C124.03437,91.1793782 124.899359,90.397063 125.871208,89.5843774 C129.05896,86.9162943 129.720356,86.0079988 132.495298,83.0384627 C136.059866,79.2241837 139.478769,72.9561006 141.274551,67.974254 C142.098485,65.6880487 143.014092,62.2860178 143.303171,59.4902671 C144.76488,45.3416654 139.580003,35.0320887 133.595938,27.4192782 L129.852523,23.187127 L128.490923,21.9492579 C127.931323,21.4138416 127.726043,21.1140759 127.080956,20.5960944 C126.578722,20.1928449 126.208655,19.8126543 125.69686,19.3812842 C122.809998,16.9482893 119.688611,14.8088736 116.46374,12.8871114 C114.596532,11.7746602 112.488049,10.7471333 110.531417,9.76009998 L109.736729,9.25786596 C116.684768,11.0266521 123.388158,13.5023903 129.786158,16.8082487 C132.128042,18.0185596 134.238213,19.308733 136.443993,20.6737072 C139.674488,22.6730823 143.47302,25.4379003 146.167536,28.1487268 C146.561787,28.5452273 146.740072,28.598094 147.130948,28.9715357 L149.688236,31.6188096 C150.262459,32.2121544 150.92948,32.8088736 151.420466,33.465771 C151.788845,33.958444 151.866458,34.0051242 152.249461,34.4280581 C154.626215,37.0522731 156.884862,40.5094204 158.526543,43.6465552 C162.039931,50.3600687 164.445368,57.4003437 164.445368,65.6346196 C164.445368,67.8853929 163.468458,75.6202468 163.062397,77.5971254 C161.909452,83.2071864 158.580534,88.8622403 155.305608,93.3868458 C154.100359,95.0515857 152.727511,96.6887674 151.288299,98.163412 L147.53701,101.72573 C147.214748,102.007499 147.137697,102.145852 146.78169,102.432682 C139.318481,108.459491 138.725137,108.552289 131.301859,113.216935 C125.113638,117.105452 112.295704,122.676144 105.596813,125.172129 C102.755507,126.230027 100.031183,127.384659 97.1600687,128.356507 C88.5472895,131.270926 80.0475551,134.46599 71.4465865,137.491767 C68.5136072,138.523793 65.8117794,139.501828 62.9789095,140.644087 C62.1060459,140.996157 55.5443837,143.942072 54.8683643,144 C55.9077019,140.665459 56.905421,137.371973 58.0909858,134.103796 C58.6854554,132.464365 61.1561319,125.705296 61.266927,124.325699 C58.3463209,123.692423 55.4341509,122.942165 52.5714732,122.070989 C50.694704,121.499578 48.9680987,120.921981 47.1897516,120.193095 C43.5014529,118.680769 39.5735666,117.132448 36.1456647,115.075145 C35.7564756,114.841743 35.4089049,114.706202 34.9814716,114.459303 C33.3887205,113.539759 32.0085612,112.666333 30.4613654,111.691111 C28.918669,110.719263 27.6566162,109.675988 26.2027808,108.652398 C24.4879863,107.444899 22.6910795,106.059678 21.2349945,104.528792 C20.8249961,104.098547 20.7271364,104.043431 20.2918294,103.684612 C19.0117794,102.629527 17.8290267,101.192001 16.6732698,99.9845024 C15.5315732,98.7921887 14.3409467,97.2972973 13.3674113,95.9621309 C7.00090611,87.2363068 2.87955007,77.7540384 2.87955007,66.4613654 L2.99653179,66.6705827 C3.01115451,66.6987033 3.03758788,66.7465084 3.05333542,66.7780034 C3.07414466,66.8207468 3.13544759,66.9551633 3.15569442,67.0024059 C3.27380097,67.2729261 3.25974067,67.2560537 3.33735354,67.4765193 C3.69954695,68.5074207 4.05836588,69.5670052 4.53022965,70.5416654 C5.18487736,71.8920169 5.70285893,72.9544134 6.42893298,74.2007186 C7.16625527,75.4667083 7.83665052,76.4908608 8.68364318,77.6567411 C10.3174504,79.9047024 13.3117325,83.5148258 15.2644274,85.0738322 C15.8830808,85.5676301 16.1108577,85.8730198 16.7283862,86.371317 L21.3193564,90.0579284 C22.9222309,91.2969224 24.6156538,92.3964381 26.3439463,93.462209 C27.5250117,94.1899703 28.6149664,94.8648649 29.7605999,95.5515701 L35.1383846,98.4260584 C35.7964068,98.7410092 36.3464459,99.0486486 36.9521637,99.3613498 C39.4205905,100.637463 41.9030776,101.748227 44.563287,102.902859 C46.2201531,103.622746 50.9747852,105.478144 52.3088267,106.140103 L53.2688642,100.022746 L50.5968442,97.8248399 C49.9197,97.2393688 48.7150133,96.1235432 48.6295266,95.0628339 L54.0686143,95.2281831 C54.2918919,94.2090923 55.1023278,89.1203874 55.9881269,88.4499922 C56.2457116,89.3470395 57.676488,94.9436026 57.9824402,95.3164818 C58.6151539,96.0869864 62.1032339,95.6044368 63.0098422,95.9278238 C63.9350102,96.2573973 61.5183253,98.6887049 61.1471333,99.07227 C60.6870801,99.5475082 60.3350102,100.168974 59.667427,100.353445 L60.7180128,104.392689 C61.0779566,105.695235 61.6409311,106.973598 61.747227,108.28908 L57.9458835,104.94329 C57.5100141,104.52598 57.2659272,104.155913 56.7878769,103.825215 C55.9268239,104.558038 54.1580378,105.757663 53.5888767,106.636151 L74.2040931,114.096547 C74.633776,114.244462 76.5516013,115.093142 76.9436026,114.902484 L77.4239025,111.76085 C75.7743478,110.111858 73.8975785,108.435307 72.6248399,106.470801 L75.5077644,106.466865 C76.594907,106.461803 76.9672239,106.636151 78.0633651,106.636151 C78.2236526,105.21831 78.8631151,101.275801 78.8631151,100.188096 C79.7984065,102.006936 80.9839713,104.689642 81.4232151,106.636151 L86.5417279,106.800937 C86.0445555,107.831839 85.6058741,108.691204 84.8213092,109.486455 C82.5086705,111.829464 83.3815341,112.461053 84.2819559,115.253992 C84.4686768,115.832714 84.6222153,116.286018 84.8010623,116.866427 C85.0142165,117.556507 84.9096079,117.897329 85.5901265,118.200469 L88.7812529,119.365787 C89.7829089,119.774098 90.7789408,120.123918 91.7980316,120.546852 C92.7625683,120.947289 93.7203562,121.34154 94.7698172,121.774035 C95.6634901,122.142415 96.8046243,122.923043 97.7393532,123.003468 L94.8384315,114.428371 C94.2546477,112.60503 92.3660678,107.518013 91.9808155,105.809405 L94.6674582,105.114263 C95.187127,104.979284 96.9396032,104.91517 96.9396032,104.155913 L96.9396032,102.502421 L92.9402906,97.7084206 L96.9396032,97.8737697 C97.3349789,96.8108108 97.5312607,96.086424 97.580753,94.8986096 C97.6212467,93.9200125 97.8254023,92.6798938 97.8990783,91.7564131 C98.518294,92.7428839 98.8068114,93.9115763 99.2466177,94.9930948 C99.629058,95.9340103 100.159975,97.4963912 100.618903,98.2044681 L104.777941,98.534604 C103.996751,99.7938447 102.710514,101.361287 102.378691,102.833682 Z M51.3493517,11.4074051 C51.0810811,11.6846743 51.5236994,11.4917669 51.5276363,11.4934541 C51.9561943,11.6700516 51.5192001,11.2319325 51.3493517,11.4074051 Z M66.4743009,4.26325641e-13 L70.6513357,4.26325641e-13 C74.6821434,0.0725511639 78.7450086,0.363318232 82.5919075,0.940915482 C87.8285268,1.72829245 91.9453835,2.56684893 96.8366818,4.07411342 C98.3349477,4.53529136 99.7724731,4.95878769 101.191439,5.52569911 C101.943946,5.8265896 108.456116,8.5177316 109.256991,9.09307921 C108.500547,9.09307921 107.696297,8.83661928 106.955038,8.66170911 C106.17666,8.47780034 105.655866,8.36700516 104.844868,8.19715669 C101.109327,7.41596626 89.6344321,6.96603656 85.2611155,6.94241525 C84.1902828,6.93679113 83.7381034,7.08751758 82.8674895,7.11451336 C80.9665365,7.17300422 77.1263865,7.02115294 75.4481487,7.38222153 C74.67202,7.54869552 75.0837057,7.34735198 74.5764099,7.80346821 C74.2788939,8.07117638 74.1900328,8.14878925 73.8807061,8.40749883 C73.1512576,9.01884081 73.6174973,8.79162631 72.4645524,9.5891267 L74.0646149,15.0450867 L70.0653023,11.4074051 L66.5457272,13.0608967 L67.3460397,8.26633339 L63.6892361,8.78543978 C61.6634276,9.10376504 53.8475863,10.9029214 53.7486018,10.9113576 L54.8683643,14.8797375 L51.1890642,11.7381034 C48.2071551,12.6987033 46.7291361,13.1531323 43.8079675,14.3600687 C42.3350102,14.9680362 38.4189345,16.7227621 36.9521637,17.5247618 L39.6697391,19.3452898 L43.1910014,20.169786 L39.3519763,23.1455085 C39.6404937,24.1640369 40.9351664,28.3556944 40.9514763,29.097516 L38.6444618,27.0182784 C37.8104046,26.3523824 37.2136854,25.4772692 36.4724262,24.9643493 L32.7953757,26.6200906 C32.419122,26.8124356 32.0428683,26.9299797 31.6733635,27.1138885 L32.4388064,24.4323075 C33.3296672,21.2327449 33.4623965,22.0437432 32.0304952,20.4616779 C24.2692079,25.7011092 20.9256679,28.7257616 15.0000937,36.1681612 C14.281331,37.0708327 13.7537885,37.9240119 13.1165755,38.8514295 C8.77306671,45.1768786 3.03927511,57.7659116 3.03927511,66.2960162 C1.17769099,61.9952507 0.161412279,57.4138416 -1.8189894e-12,52.71995 L-1.8189894e-12,50.0619903 C0.0478050305,48.6621465 0.169848461,47.2549914 0.367817529,45.8450242 C1.3126699,39.1163256 3.85702234,33.2762381 6.87886268,28.6014685 C11.1841275,21.9408217 15.2914232,18.1338541 21.228808,13.5085768 C24.1454773,11.2369942 28.8629902,8.60940478 32.2059678,6.99809405 C40.0459928,3.2198094 52.9640369,0.651273239 61.9063896,0.164786752 C63.401281,0.0832369942 64.9287924,0.0269957819 66.4743009,4.26325641e-13 Z M42.0712389,83.3247305 C41.5763162,83.1880644 41.1539447,82.7302609 40.7557569,82.3697547 L38.3238869,80.2539603 C37.8216529,79.8478988 37.5533823,79.4969536 37.1118888,79.1915638 L31.8330886,82.6633339 L32.6648961,78.7286986 C33.1727543,76.4886112 33.6401187,75.821028 32.8437432,75.0072176 L29.4737697,71.3802218 C29.0682706,70.9634745 28.6324012,70.7120762 28.473801,70.0984846 L34.8729261,70.7598813 L36.6321512,64.643087 L38.7119513,71.2559288 L44.6307764,71.9173254 C44.1111076,72.5944696 43.1212623,73.6534916 42.483487,74.1619122 C41.7377285,74.7575066 40.8018747,75.6247461 40.3114513,76.3811904 C40.6190908,77.6584284 42.0594282,82.7707546 42.0712389,83.3247305 Z M28.3140759,41.1663178 C28.3399469,39.9650055 29.6559913,36.9262928 29.753851,35.7109202 L32.028808,41.4604593 C32.3685049,42.1477269 32.5220434,41.9497579 33.3369786,42.0920481 C34.108608,42.227027 37.6011873,42.8304952 37.9122012,42.9851586 L35.7671614,44.9012967 C35.4162162,45.1819403 33.6901734,46.2859553 33.7526012,46.7876269 C33.8797063,47.7994063 35.3301672,52.1856585 35.3526636,53.2351195 L34.0371817,52.1147946 C33.2869239,51.4387752 30.9450398,49.3257928 30.2335885,48.9366037 C29.7426027,49.23187 25.8833307,51.6238088 25.4345259,51.7475394 L26.8743009,45.4648336 L23.315357,41.5380722 C22.8912982,41.1044524 22.39975,40.8119981 22.2355257,40.1747852 C23.3114201,40.3598188 27.5598813,41.1663178 28.3140759,41.1663178 Z M108.137229,79.1915638 C108.137229,78.626902 108.304827,75.0454616 108.440369,74.5449149 C108.451055,74.5049836 108.467364,74.4543665 108.478613,74.4189345 L110.696766,79.6876113 L114.855804,80.1836588 L114.184846,81.308483 C112.92673,83.2977347 112.256335,83.2881737 112.70289,84.5417903 C113.120762,85.7166693 114.32095,88.819497 114.535791,89.7727855 L110.537041,86.3004531 C109.87002,86.9534135 108.809311,87.9123262 108.302015,88.6198406 C107.99775,89.043337 108.045555,89.1254491 107.497204,89.276738 L107.749727,85.7346665 C107.958382,84.3123262 108.003374,83.3905327 107.305421,82.6965162 C105.956757,81.3551633 105.375223,80.5385409 104.739697,79.8923293 C104.35107,79.4969536 104.123293,79.4215904 103.978191,78.8608655 L108.137229,79.1915638 Z M108.137229,55.8807061 C108.137229,54.1878456 108.338572,52.8942978 108.457241,51.4168411 C108.860491,52.0214342 110.641087,56.2940791 110.696766,56.5415404 L114.535791,57.202937 L113.395219,58.8344946 C111.880644,60.8946102 111.897516,59.4098422 114.215779,65.7999688 C113.399156,65.0648961 111.018466,63.0711451 110.537041,62.3281987 L109.055085,63.6076863 C108.587721,64.0784252 108.175473,64.4496172 107.657491,64.8078738 L107.818341,61.5020153 C107.919575,59.5549445 107.844212,59.7135448 107.180003,58.8536166 C106.706452,58.240025 104.306077,55.8688955 104.137916,55.2193095 L108.137229,55.8807061 Z M100.139166,33.8920794 C100.362443,32.8999844 100.618903,30.9388533 100.618903,29.7589127 L101.739228,31.9078894 C102.22234,33.1845649 102.521544,34.5253554 103.265615,34.7930636 C103.622184,34.921856 104.019247,34.9938447 104.401125,35.1080144 C105.054648,35.3031714 106.047868,35.4679581 106.537728,35.7109202 L104.298203,38.5212935 C104.903359,39.5938135 105.574317,42.095985 106.217716,43.4812061 L104.175035,41.7894704 C103.550758,41.1511326 103.015904,40.5819716 102.378691,40.009436 L99.6588658,42.1584127 L99.9788783,37.3638494 C99.3669739,36.678269 96.6184659,33.8448367 96.4593032,33.2306827 L100.139166,33.8920794 Z M86.5417279,15.5405718 C86.5417279,14.1716607 87.0748945,12.7358225 87.1817529,11.4074051 C87.7959069,12.5423528 87.7115451,12.3623809 88.1642868,13.5333229 C88.4286205,14.2160912 88.6822684,14.9129199 88.9758475,15.670489 C89.2919231,16.486549 89.4319638,16.4083737 90.8942353,16.8284955 C91.596688,17.0309639 92.5432276,17.248055 93.100578,17.5247618 C92.5511014,18.0950476 91.4836432,19.2929855 90.7007655,19.5083893 L92.3002656,24.7990002 C91.4279644,23.9868771 89.3234182,22.1640994 88.7812529,21.3272301 L85.5822528,23.1455085 L85.8927043,20.4914857 C86.0417435,19.3104202 86.3302609,18.7856897 85.955132,18.2986408 C85.3111701,17.4628964 83.5907514,16.3363849 83.3427277,15.3752226 L86.5417279,15.5405718 Z M42.0712389,83.3247305 L42.2315263,83.3247305 L42.0976722,83.5176379 L42.0712389,83.3247305 Z M109.256991,9.09307921 L109.416716,9.09307921 L109.283987,9.28598656 L109.256991,9.09307921 Z" id="yepp_logo" fill="#1C1C1C"></path>
    </g>
</svg>